<svg width="38" height="38" viewBox="0 0 38 38" fill="none" xmlns="http://www.w3.org/2000/svg">
<path d="M37.3656 19C37.716 19 38.0011 19.2842 37.9894 19.6343C37.8683 23.2619 36.7101 26.784 34.6457 29.7801C32.4612 32.9506 29.365 35.3827 25.7673 36.754C22.1695 38.1253 18.24 38.3713 14.4994 37.4593C10.7587 36.5472 7.38342 34.5203 4.8206 31.6469C2.25778 28.7736 0.628393 25.1894 0.148291 21.3692C-0.331811 17.549 0.360028 13.6731 2.13216 10.2549C3.90429 6.83678 6.67308 4.03767 10.0717 2.22841C13.2835 0.518652 16.9145 -0.230876 20.5323 0.0618873C20.8815 0.0901467 21.1314 0.405777 21.0915 0.753855C21.0516 1.10193 20.7371 1.35057 20.3878 1.32314C17.0255 1.05914 13.6527 1.75942 10.6679 3.34836C7.49623 5.0368 4.91233 7.649 3.25854 10.8389C1.60474 14.0288 0.959101 17.6459 1.40714 21.211C1.85519 24.7761 3.37577 28.1209 5.76745 30.8024C8.15914 33.4839 11.3091 35.3755 14.7999 36.2266C18.2908 37.0777 21.9579 36.8482 25.3154 35.5684C28.6729 34.2887 31.5623 32.0191 33.601 29.0603C35.5195 26.2758 36.5993 23.0047 36.7199 19.6343C36.7324 19.2841 37.0153 19 37.3656 19Z" fill="#085DC6"/>
<path d="M26.9166 19L27.2702 19.3536L27.6237 19L27.2702 18.6464L26.9166 19ZM12.0729 18.5C11.7967 18.5 11.5729 18.7239 11.5729 19C11.5729 19.2761 11.7967 19.5 12.0729 19.5L12.0729 18.5ZM21.3327 25.2911L27.2702 19.3536L26.5631 18.6464L20.6256 24.5839L21.3327 25.2911ZM27.2702 18.6464L21.3327 12.7089L20.6256 13.4161L26.5631 19.3536L27.2702 18.6464ZM26.9166 18.5L12.0729 18.5L12.0729 19.5L26.9166 19.5L26.9166 18.5Z" fill="#085DC6"/>
</svg>
